[ConversionWorker] Logging FFmpeg output to: ffmpeg_logs\ffmpeg_conversion_高冷07_wav_20250525_173800.log\n[ConversionWorker] Getting duration with command: ffprobe -v error -show_entries format=duration -of default=noprint_wrappers=1:nokey=1 Z:\Story\高冷\高冷07.wav\n[ConversionWorker] Duration for 高冷07.wav: 3107380 ms\n[ConversionWorker] Starting FFmpeg for 高冷07.wav: ffmpeg -i Z:\Story\高冷\高冷07.wav -b:a 128k -vn -y -loglevel error -stats -progress pipe:1 Z:\Story\高冷\高冷07.mp3\n[ConversionWorker] FFmpeg process started. PID: 23700\n[STDOUT RAW] bitrate= 123.5kbits/s\n[STDOUT RAW] total_size=73772\n[STDOUT RAW] out_time_us=4777958\n[STDOUT RAW] out_time_ms=4777958\n[STDOUT RAW] out_time=00:00:04.777958\n[STDOUT RAW] dup_frames=0\n[STDOUT RAW] drop_frames=0\n[STDOUT RAW] speed=9.18x\n[STDOUT RAW] progress=continue\n[STDERR RAW] size=      72KiB time=00:00:04.77 bitrate= 123.5kbits/s speed=9.18x\n[STDOUT RAW] bitrate= 125.8kbits/s\n[STDOUT RAW] total_size=151340\n[STDOUT RAW] out_time_us=9625958\n[STDOUT RAW] out_time_ms=9625958\n[STDOUT RAW] out_time=00:00:09.625958\n[STDOUT RAW] dup_frames=0\n[STDOUT RAW] drop_frames=0\n[STDOUT RAW] speed=9.25x\n[STDOUT RAW] progress=continue\n[STDERR RAW] size=     148KiB time=00:00:09.62 bitrate= 125.8kbits/s speed=9.25x\n[STDOUT RAW] bitrate= 126.5kbits/s\n[STDOUT RAW] total_size=228140\n[STDOUT RAW] out_time_us=14425958\n[STDOUT RAW] out_time_ms=14425958\n[STDOUT RAW] out_time=00:00:14.425958\n[STDOUT RAW] dup_frames=0\n[STDOUT RAW] drop_frames=0\n[STDOUT RAW] speed=9.32x\n[STDOUT RAW] progress=continue\n[STDOUT RAW] bitrate= 121.6kbits/s\n[STDOUT RAW] total_size=1048576\n[STDOUT RAW] out_time_us=69001958\n[STDOUT RAW] out_time_ms=69001958\n[STDERR RAW] size=     223KiB time=00:00:14.42 bitrate= 126.5kbits/s speed=9.32x\n[STDOUT RAW] out_time=00:01:09.001958\n[STDOUT RAW] dup_frames=0\n[STDOUT RAW] drop_frames=0\n[STDOUT RAW] speed=33.3x\n[STDOUT RAW] progress=continue\n[STDERR RAW] size=    1024KiB time=00:01:09.00 bitrate= 121.6kbits/s speed=33.3x\n[STDOUT RAW] bitrate= 126.1kbits/s\n[STDOUT RAW] total_size=2621440\n[STDOUT RAW] out_time_us=166273958\n[STDOUT RAW] out_time_ms=166273958\n[STDOUT RAW] out_time=00:02:46.273958\n[STDOUT RAW] dup_frames=0\n[STDOUT RAW] drop_frames=0\n[STDOUT RAW] speed=64.3x\n[STDOUT RAW] progress=continue\n[STDERR RAW] size=    2560KiB time=00:02:46.27 bitrate= 126.1kbits/s speed=64.3x\n[STDOUT RAW] bitrate= 119.9kbits/s\n[STDOUT RAW] total_size=3932160\n[STDOUT RAW] out_time_us=262273958\n[STDOUT RAW] out_time_ms=262273958\n[STDOUT RAW] out_time=00:04:22.273958\n[STDOUT RAW] dup_frames=0\n[STDOUT RAW] drop_frames=0\n[STDOUT RAW] speed=84.6x\n[STDOUT RAW] progress=continue\n[STDERR RAW] size=    3840KiB time=00:04:22.27 bitrate= 119.9kbits/s speed=84.6x\n[STDOUT RAW] bitrate= 123.4kbits/s\n[STDOUT RAW] total_size=5505024\n[STDOUT RAW] out_time_us=356977958\n[STDOUT RAW] out_time_ms=356977958\n[STDOUT RAW] out_time=00:05:56.977958\n[STDOUT RAW] dup_frames=0\n[STDOUT RAW] drop_frames=0\n[STDOUT RAW] speed=98.7x\n[STDOUT RAW] progress=continue\n[STDERR RAW] size=    5376KiB time=00:05:56.97 bitrate= 123.4kbits/s speed=98.7x\n[STDOUT RAW] bitrate= 125.7kbits/s\n[STDOUT RAW] total_size=7077888\n[STDOUT RAW] out_time_us=450529958\n[STDOUT RAW] out_time_ms=450529958\n[STDOUT RAW] out_time=00:07:30.529958\n[STDOUT RAW] dup_frames=0\n[STDOUT RAW] drop_frames=0\n[STDOUT RAW] speed= 109x\n[STDOUT RAW] progress=continue\n[STDERR RAW] size=    6912KiB time=00:07:30.52 bitrate= 125.7kbits/s speed= 109x\n[STDOUT RAW] bitrate= 127.8kbits/s\n[STDOUT RAW] total_size=8650752\n[STDOUT RAW] out_time_us=541321958\n[STDOUT RAW] out_time_ms=541321958\n[STDOUT RAW] out_time=00:09:01.321958\n[STDOUT RAW] dup_frames=0\n[STDOUT RAW] drop_frames=0\n[STDOUT RAW] speed= 116x\n[STDOUT RAW] progress=continue\n[STDERR RAW] size=    8448KiB time=00:09:01.32 bitrate= 127.8kbits/s speed= 116x\n[STDOUT RAW] bitrate= 125.6kbits/s\n[STDOUT RAW] total_size=9961472\n[STDOUT RAW] out_time_us=634537958\n[STDOUT RAW] out_time_ms=634537958\n[STDOUT RAW] out_time=00:10:34.537958\n[STDOUT RAW] dup_frames=0\n[STDOUT RAW] drop_frames=0\n[STDOUT RAW] speed= 123x\n[STDOUT RAW] progress=continue\n[STDERR RAW] size=    9728KiB time=00:10:34.53 bitrate= 125.6kbits/s speed= 123x\n[STDOUT RAW] bitrate= 125.2kbits/s\n[STDOUT RAW] total_size=11272192\n[STDOUT RAW] out_time_us=720385958\n[STDOUT RAW] out_time_ms=720385958\n[STDOUT RAW] out_time=00:12:00.385958\n[STDOUT RAW] dup_frames=0\n[STDOUT RAW] drop_frames=0\n[STDOUT RAW] speed= 127x\n[STDOUT RAW] progress=continue\n[STDERR RAW] size=   11008KiB time=00:12:00.38 bitrate= 125.2kbits/s speed= 127x\n[STDOUT RAW] bitrate= 126.9kbits/s\n[STDOUT RAW] total_size=12845056\n[STDOUT RAW] out_time_us=809617958\n[STDOUT RAW] out_time_ms=809617958\n[STDOUT RAW] out_time=00:13:29.617958\n[STDOUT RAW] dup_frames=0\n[STDOUT RAW] drop_frames=0\n[STDOUT RAW] speed= 131x\n[STDOUT RAW] progress=continue\n[STDERR RAW] size=   12544KiB time=00:13:29.61 bitrate= 126.9kbits/s speed= 131x\n[STDOUT RAW] bitrate= 127.5kbits/s\n[STDOUT RAW] total_size=14417920\n[STDOUT RAW] out_time_us=904633958\n[STDOUT RAW] out_time_ms=904633958\n[STDOUT RAW] out_time=00:15:04.633958\n[STDOUT RAW] dup_frames=0\n[STDOUT RAW] drop_frames=0\n[STDOUT RAW] speed= 135x\n[STDOUT RAW] progress=continue\n[STDERR RAW] size=   14080KiB time=00:15:04.63 bitrate= 127.5kbits/s speed= 135x\n[STDOUT RAW] bitrate= 127.0kbits/s\n[STDOUT RAW] total_size=15990784\n[STDOUT RAW] out_time_us=1007425958\n[STDOUT RAW] out_time_ms=1007425958\n[STDOUT RAW] out_time=00:16:47.425958\n[STDOUT RAW] dup_frames=0\n[STDOUT RAW] drop_frames=0\n[STDOUT RAW] speed= 140x\n[STDOUT RAW] progress=continue\n[STDERR RAW] size=   15616KiB time=00:16:47.42 bitrate= 127.0kbits/s speed= 140x\n[STDOUT RAW] bitrate= 126.7kbits/s\n[STDOUT RAW] total_size=17563648\n[STDOUT RAW] out_time_us=1108801958\n[STDOUT RAW] out_time_ms=1108801958\n[STDOUT RAW] out_time=00:18:28.801958\n[STDOUT RAW] dup_frames=0\n[STDOUT RAW] drop_frames=0\n[STDOUT RAW] speed= 143x\n[STDOUT RAW] progress=continue\n[STDERR RAW] size=   17152KiB time=00:18:28.80 bitrate= 126.7kbits/s speed= 143x\n[STDOUT RAW] bitrate= 126.7kbits/s\n[STDOUT RAW] total_size=19136512\n[STDOUT RAW] out_time_us=1208401958\n[STDOUT RAW] out_time_ms=1208401958\n[STDOUT RAW] out_time=00:20:08.401958\n[STDOUT RAW] dup_frames=0\n[STDOUT RAW] drop_frames=0\n[STDOUT RAW] speed= 146x\n[STDOUT RAW] progress=continue\n[STDERR RAW] size=   18688KiB time=00:20:08.40 bitrate= 126.7kbits/s speed= 146x\n[STDOUT RAW] bitrate= 128.0kbits/s\n[STDOUT RAW] total_size=20971520\n[STDOUT RAW] out_time_us=1310881958\n[STDOUT RAW] out_time_ms=1310881958\n[STDOUT RAW] out_time=00:21:50.881958\n[STDOUT RAW] dup_frames=0\n[STDOUT RAW] drop_frames=0\n[STDOUT RAW] speed= 149x\n[STDOUT RAW] progress=continue\n[STDERR RAW] size=   20480KiB time=00:21:50.88 bitrate= 128.0kbits/s speed= 149x\n[STDOUT RAW] bitrate= 126.6kbits/s\n[STDOUT RAW] total_size=22282240\n[STDOUT RAW] out_time_us=1407697958\n[STDOUT RAW] out_time_ms=1407697958\n[STDOUT RAW] out_time=00:23:27.697958\n[STDOUT RAW] dup_frames=0\n[STDOUT RAW] drop_frames=0\n[STDOUT RAW] speed= 152x\n[STDOUT RAW] progress=continue\n[STDERR RAW] size=   21760KiB time=00:23:27.69 bitrate= 126.6kbits/s speed= 152x\n[STDOUT RAW] bitrate= 126.8kbits/s\n[STDOUT RAW] total_size=23855104\n[STDOUT RAW] out_time_us=1505233958\n[STDOUT RAW] out_time_ms=1505233958\n[STDOUT RAW] out_time=00:25:05.233958\n[STDOUT RAW] dup_frames=0\n[STDOUT RAW] drop_frames=0\n[STDOUT RAW] speed= 154x\n[STDOUT RAW] progress=continue\n[STDERR RAW] size=   23296KiB time=00:25:05.23 bitrate= 126.8kbits/s speed= 154x\n[STDOUT RAW] bitrate= 127.1kbits/s\n[STDOUT RAW] total_size=25427968\n[STDOUT RAW] out_time_us=1600993958\n[STDOUT RAW] out_time_ms=1600993958\n[STDOUT RAW] out_time=00:26:40.993958\n[STDOUT RAW] dup_frames=0\n[STDOUT RAW] drop_frames=0\n[STDOUT RAW] speed= 155x\n[STDOUT RAW] progress=continue\n[STDERR RAW] size=   24832KiB time=00:26:40.99 bitrate= 127.1kbits/s speed= 155x\n[STDOUT RAW] bitrate= 127.9kbits/s\n[STDOUT RAW] total_size=27262976\n[STDOUT RAW] out_time_us=1704913958\n[STDOUT RAW] out_time_ms=1704913958\n[STDOUT RAW] out_time=00:28:24.913958\n[STDOUT RAW] dup_frames=0\n[STDOUT RAW] drop_frames=0\n[STDOUT RAW] speed= 157x\n[STDOUT RAW] progress=continue\n[STDOUT RAW] bitrate= 128.0kbits/s\n[STDOUT RAW] total_size=28835840\n[STDOUT RAW] out_time_us=1802761958\n[STDERR RAW] size=   26624KiB time=00:28:24.91 bitrate= 127.9kbits/s speed= 157x\n[STDOUT RAW] out_time_ms=1802761958\n[STDOUT RAW] out_time=00:30:02.761958\n[STDOUT RAW] dup_frames=0\n[STDOUT RAW] drop_frames=0\n[STDOUT RAW] speed= 159x\n[STDOUT RAW] progress=continue\n[STDERR RAW] size=   28160KiB time=00:30:02.76 bitrate= 128.0kbits/s speed= 159x\n[STDOUT RAW] bitrate= 127.2kbits/s\n[STDOUT RAW] total_size=30146560\n[STDOUT RAW] out_time_us=1895593958\n[STDOUT RAW] out_time_ms=1895593958\n[STDOUT RAW] out_time=00:31:35.593958\n[STDOUT RAW] dup_frames=0\n[STDOUT RAW] drop_frames=0\n[STDOUT RAW] speed= 160x\n[STDOUT RAW] progress=continue\n[STDERR RAW] size=   29440KiB time=00:31:35.59 bitrate= 127.2kbits/s speed= 160x\n[STDOUT RAW] bitrate= 127.5kbits/s\n[STDOUT RAW] total_size=31719424\n[STDOUT RAW] out_time_us=1990777958\n[STDOUT RAW] out_time_ms=1990777958\n[STDOUT RAW] out_time=00:33:10.777958\n[STDOUT RAW] dup_frames=0\n[STDOUT RAW] drop_frames=0\n[STDOUT RAW] speed= 161x\n[STDOUT RAW] progress=continue\n[STDOUT RAW] bitrate= 127.1kbits/s\n[STDERR RAW] size=   30976KiB time=00:33:10.77 bitrate= 127.5kbits/s speed= 161x\n[STDOUT RAW] total_size=33292288\n[STDOUT RAW] out_time_us=2094889958\n[STDOUT RAW] out_time_ms=2094889958\n[STDOUT RAW] out_time=00:34:54.889958\n[STDOUT RAW] dup_frames=0\n[STDOUT RAW] drop_frames=0\n[STDOUT RAW] speed= 162x\n[STDOUT RAW] progress=continue\n[STDERR RAW] size=   32512KiB time=00:34:54.88 bitrate= 127.1kbits/s speed= 162x\n[STDOUT RAW] bitrate= 127.1kbits/s\n[STDOUT RAW] total_size=34865152\n[STDOUT RAW] out_time_us=2195161958\n[STDOUT RAW] out_time_ms=2195161958\n[STDOUT RAW] out_time=00:36:35.161958\n[STDOUT RAW] dup_frames=0\n[STDOUT RAW] drop_frames=0\n[STDOUT RAW] speed= 164x\n[STDOUT RAW] progress=continue\n[STDERR RAW] size=   34048KiB time=00:36:35.16 bitrate= 127.1kbits/s speed= 164x\n[STDOUT RAW] bitrate= 127.6kbits/s\n[STDOUT RAW] total_size=36700160\n[STDOUT RAW] out_time_us=2300089958\n[STDOUT RAW] out_time_ms=2300089958\n[STDOUT RAW] out_time=00:38:20.089958\n[STDOUT RAW] dup_frames=0\n[STDOUT RAW] drop_frames=0\n[STDOUT RAW] speed= 165x\n[STDOUT RAW] progress=continue\n[STDERR RAW] size=   35840KiB time=00:38:20.08 bitrate= 127.6kbits/s speed= 165x\n[STDOUT RAW] bitrate= 127.4kbits/s\n[STDOUT RAW] total_size=38273024\n[STDOUT RAW] out_time_us=2403121958\n[STDOUT RAW] out_time_ms=2403121958\n[STDOUT RAW] out_time=00:40:03.121958\n[STDOUT RAW] dup_frames=0\n[STDOUT RAW] drop_frames=0\n[STDOUT RAW] speed= 166x\n[STDOUT RAW] progress=continue\n[STDERR RAW] size=   37376KiB time=00:40:03.12 bitrate= 127.4kbits/s speed= 166x\n[STDOUT RAW] bitrate= 127.9kbits/s\n[STDOUT RAW] total_size=40108032\n[STDOUT RAW] out_time_us=2509513958\n[STDOUT RAW] out_time_ms=2509513958\n[STDOUT RAW] out_time=00:41:49.513958\n[STDOUT RAW] dup_frames=0\n[STDOUT RAW] drop_frames=0\n[STDOUT RAW] speed= 168x\n[STDOUT RAW] progress=continue\n[STDERR RAW] size=   39168KiB time=00:41:49.51 bitrate= 127.9kbits/s speed= 168x\n[STDOUT RAW] bitrate= 127.6kbits/s\n[STDOUT RAW] total_size=41680896\n[STDOUT RAW] out_time_us=2612809958\n[STDOUT RAW] out_time_ms=2612809958\n[STDOUT RAW] out_time=00:43:32.809958\n[STDOUT RAW] dup_frames=0\n[STDOUT RAW] drop_frames=0\n[STDOUT RAW] speed= 169x\n[STDOUT RAW] progress=continue\n[STDERR RAW] size=   40704KiB time=00:43:32.80 bitrate= 127.6kbits/s speed= 169x\n[STDOUT RAW] bitrate= 127.4kbits/s\n[STDOUT RAW] total_size=43253760\n[STDOUT RAW] out_time_us=2715481958\n[STDOUT RAW] out_time_ms=2715481958\n[STDOUT RAW] out_time=00:45:15.481958\n[STDOUT RAW] dup_frames=0\n[STDOUT RAW] drop_frames=0\n[STDOUT RAW] speed= 170x\n[STDOUT RAW] progress=continue\n[STDERR RAW] size=   42240KiB time=00:45:15.48 bitrate= 127.4kbits/s speed= 170x\n[STDOUT RAW] bitrate= 127.3kbits/s\n[STDOUT RAW] total_size=44826624\n[STDOUT RAW] out_time_us=2816809958\n[STDOUT RAW] out_time_ms=2816809958\n[STDOUT RAW] out_time=00:46:56.809958\n[STDOUT RAW] dup_frames=0\n[STDOUT RAW] drop_frames=0\n[STDOUT RAW] speed= 171x\n[STDOUT RAW] progress=continue\n[STDERR RAW] size=   43776KiB time=00:46:56.80 bitrate= 127.3kbits/s speed= 171x\n[STDOUT RAW] bitrate= 127.9kbits/s\n[STDOUT RAW] total_size=46661632\n[STDOUT RAW] out_time_us=2919697958\n[STDOUT RAW] out_time_ms=2919697958\n[STDOUT RAW] out_time=00:48:39.697958\n[STDOUT RAW] dup_frames=0\n[STDOUT RAW] drop_frames=0\n[STDOUT RAW] speed= 171x\n[STDOUT RAW] progress=continue\n[STDERR RAW] size=   45568KiB time=00:48:39.69 bitrate= 127.9kbits/s speed= 171x\n[STDOUT RAW] bitrate= 127.4kbits/s\n[STDOUT RAW] total_size=48234496\n[STDOUT RAW] out_time_us=3029593958\n[STDOUT RAW] out_time_ms=3029593958\n[STDOUT RAW] out_time=00:50:29.593958\n[STDOUT RAW] dup_frames=0\n[STDOUT RAW] drop_frames=0\n[STDOUT RAW] speed= 173x\n[STDOUT RAW] progress=continue\n[STDERR RAW] size=   47104KiB time=00:50:29.59 bitrate= 127.4kbits/s speed= 173x\n[STDERR RAW] size=   48554KiB time=00:51:47.38 bitrate= 128.0kbits/s speed= 173x\n[STDOUT RAW] bitrate= 128.0kbits/s\n[STDOUT RAW] total_size=49719596\n[STDOUT RAW] out_time_us=3107380667\n[STDOUT RAW] out_time_ms=3107380667\n[STDOUT RAW] out_time=00:51:47.380667\n[STDOUT RAW] dup_frames=0\n[STDOUT RAW] drop_frames=0\n[STDOUT RAW] speed= 173x\n[STDOUT RAW] progress=end\n[ConversionWorker] STDERR pipe closed signal received.\n[ConversionWorker] Detected 'progress=end' for 高冷07.wav\n[ConversionWorker] STDOUT pipe closed signal received.\n[ConversionWorker] Process finished and both stream pipes closed. Exiting loop.\n[ConversionWorker] Waiting for reader threads to join...\n[ConversionWorker] FFmpeg process ended. Return code: 0\n[ConversionWorker] Closing FFmpeg log file.\n